<svg xmlns="http://www.w3.org/2000/svg" width="64" height="64" viewBox="0 0 64 64" fill="none">
  <rect width="64" height="64" rx="18" fill="#111316" />
  <rect x="4" y="4" width="56" height="56" rx="14" stroke="#C58E52" stroke-opacity="0.28" />
  <path d="M20 46V18H29.672C34.8133 18 38.136 20.6613 38.136 24.808C38.136 28.4427 35.7227 30.864 31.76 31.296L39.144 46H33.6L26.648 31.728H24.992V46H20ZM24.992 28.464H28.952C31.8667 28.464 34 27.2 34 24.772C34 22.336 31.8667 21.072 28.952 21.072H24.992V28.464Z" fill="#F1E0C6"/>
  <path d="M44.828 46L39.72 18H43.86L47.1 38.996L50.88 18H55L49.872 46H44.828Z" fill="#F1E0C6"/>
</svg>
